# Tiled2Unity generated file. Do not modify by hand.
# Wavefront file for 'Level1Map_mesh_0004.obj'

# Vertices (Count = 796)
v -80 -35 0
v -81 -35 0
v -81 -34 0
v -80 -34 0
v -32 -36 0
v -33 -36 0
v -33 -35 0
v -32 -35 0
v -80 -36 0
v -81 -36 0
v -81 -35 0
v -80 -35 0
v -32 -37 0
v -33 -37 0
v -33 -36 0
v -32 -36 0
v -80 -37 0
v -81 -37 0
v -81 -36 0
v -80 -36 0
v -32 -38 0
v -33 -38 0
v -33 -37 0
v -32 -37 0
v -80 -38 0
v -81 -38 0
v -81 -37 0
v -80 -37 0
v -32 -39 0
v -33 -39 0
v -33 -38 0
v -32 -38 0
v -80 -39 0
v -81 -39 0
v -81 -38 0
v -80 -38 0
v -32 -40 0
v -33 -40 0
v -33 -39 0
v -32 -39 0
v -80 -40 0
v -81 -40 0
v -81 -39 0
v -80 -39 0
v -32 -41 0
v -33 -41 0
v -33 -40 0
v -32 -40 0
v -80 -41 0
v -81 -41 0
v -81 -40 0
v -80 -40 0
v -32 -42 0
v -33 -42 0
v -33 -41 0
v -32 -41 0
v -33 -42 0
v -34 -42 0
v -34 -41 0
v -33 -41 0
v -34 -42 0
v -35 -42 0
v -35 -41 0
v -34 -41 0
v -35 -42 0
v -36 -42 0
v -36 -41 0
v -35 -41 0
v -36 -42 0
v -37 -42 0
v -37 -41 0
v -36 -41 0
v -80 -42 0
v -81 -42 0
v -81 -41 0
v -80 -41 0
v -32 -43 0
v -33 -43 0
v -33 -42 0
v -32 -42 0
v -33 -43 0
v -34 -43 0
v -34 -42 0
v -33 -42 0
v -34 -43 0
v -35 -43 0
v -35 -42 0
v -34 -42 0
v -35 -43 0
v -36 -43 0
v -36 -42 0
v -35 -42 0
v -36 -43 0
v -37 -43 0
v -37 -42 0
v -36 -42 0
v -78 -43 0
v -79 -43 0
v -79 -42 0
v -78 -42 0
v -80 -43 0
v -81 -43 0
v -81 -42 0
v -80 -42 0
v -32 -44 0
v -33 -44 0
v -33 -43 0
v -32 -43 0
v -33 -44 0
v -34 -44 0
v -34 -43 0
v -33 -43 0
v -34 -44 0
v -35 -44 0
v -35 -43 0
v -34 -43 0
v -35 -44 0
v -36 -44 0
v -36 -43 0
v -35 -43 0
v -36 -44 0
v -37 -44 0
v -37 -43 0
v -36 -43 0
v -68 -44 0
v -69 -44 0
v -69 -43 0
v -68 -43 0
v -78 -44 0
v -79 -44 0
v -79 -43 0
v -78 -43 0
v -80 -44 0
v -81 -44 0
v -81 -43 0
v -80 -43 0
v -32 -45 0
v -33 -45 0
v -33 -44 0
v -32 -44 0
v -33 -45 0
v -34 -45 0
v -34 -44 0
v -33 -44 0
v -34 -45 0
v -35 -45 0
v -35 -44 0
v -34 -44 0
v -35 -45 0
v -36 -45 0
v -36 -44 0
v -35 -44 0
v -36 -45 0
v -37 -45 0
v -37 -44 0
v -36 -44 0
v -68 -45 0
v -69 -45 0
v -69 -44 0
v -68 -44 0
v -78 -45 0
v -79 -45 0
v -79 -44 0
v -78 -44 0
v -80 -45 0
v -81 -45 0
v -81 -44 0
v -80 -44 0
v -32 -46 0
v -33 -46 0
v -33 -45 0
v -32 -45 0
v -33 -46 0
v -34 -46 0
v -34 -45 0
v -33 -45 0
v -34 -46 0
v -35 -46 0
v -35 -45 0
v -34 -45 0
v -35 -46 0
v -36 -46 0
v -36 -45 0
v -35 -45 0
v -36 -46 0
v -37 -46 0
v -37 -45 0
v -36 -45 0
v -46 -46 0
v -47 -46 0
v -47 -45 0
v -46 -45 0
v -47 -46 0
v -48 -46 0
v -48 -45 0
v -47 -45 0
v -48 -46 0
v -49 -46 0
v -49 -45 0
v -48 -45 0
v -49 -46 0
v -50 -46 0
v -50 -45 0
v -49 -45 0
v -50 -46 0
v -51 -46 0
v -51 -45 0
v -50 -45 0
v -51 -46 0
v -52 -46 0
v -52 -45 0
v -51 -45 0
v -60 -46 0
v -61 -46 0
v -61 -45 0
v -60 -45 0
v -61 -46 0
v -62 -46 0
v -62 -45 0
v -61 -45 0
v -62 -46 0
v -63 -46 0
v -63 -45 0
v -62 -45 0
v -63 -46 0
v -64 -46 0
v -64 -45 0
v -63 -45 0
v -64 -46 0
v -65 -46 0
v -65 -45 0
v -64 -45 0
v -65 -46 0
v -66 -46 0
v -66 -45 0
v -65 -45 0
v -66 -46 0
v -67 -46 0
v -67 -45 0
v -66 -45 0
v -67 -46 0
v -68 -46 0
v -68 -45 0
v -67 -45 0
v -68 -46 0
v -69 -46 0
v -69 -45 0
v -68 -45 0
v -69 -46 0
v -70 -46 0
v -70 -45 0
v -69 -45 0
v -70 -46 0
v -71 -46 0
v -71 -45 0
v -70 -45 0
v -71 -46 0
v -72 -46 0
v -72 -45 0
v -71 -45 0
v -72 -46 0
v -73 -46 0
v -73 -45 0
v -72 -45 0
v -73 -46 0
v -74 -46 0
v -74 -45 0
v -73 -45 0
v -74 -46 0
v -75 -46 0
v -75 -45 0
v -74 -45 0
v -75 -46 0
v -76 -46 0
v -76 -45 0
v -75 -45 0
v -76 -46 0
v -77 -46 0
v -77 -45 0
v -76 -45 0
v -77 -46 0
v -78 -46 0
v -78 -45 0
v -77 -45 0
v -78 -46 0
v -79 -46 0
v -79 -45 0
v -78 -45 0
v -79 -46 0
v -80 -46 0
v -80 -45 0
v -79 -45 0
v -80 -46 0
v -81 -46 0
v -81 -45 0
v -80 -45 0
v -32 -47 0
v -33 -47 0
v -33 -46 0
v -32 -46 0
v -33 -47 0
v -34 -47 0
v -34 -46 0
v -33 -46 0
v -34 -47 0
v -35 -47 0
v -35 -46 0
v -34 -46 0
v -35 -47 0
v -36 -47 0
v -36 -46 0
v -35 -46 0
v -36 -47 0
v -37 -47 0
v -37 -46 0
v -36 -46 0
v -40 -47 0
v -41 -47 0
v -41 -46 0
v -40 -46 0
v -41 -47 0
v -42 -47 0
v -42 -46 0
v -41 -46 0
v -42 -47 0
v -43 -47 0
v -43 -46 0
v -42 -46 0
v -43 -47 0
v -44 -47 0
v -44 -46 0
v -43 -46 0
v -44 -47 0
v -45 -47 0
v -45 -46 0
v -44 -46 0
v -45 -47 0
v -46 -47 0
v -46 -46 0
v -45 -46 0
v -46 -47 0
v -47 -47 0
v -47 -46 0
v -46 -46 0
v -47 -47 0
v -48 -47 0
v -48 -46 0
v -47 -46 0
v -48 -47 0
v -49 -47 0
v -49 -46 0
v -48 -46 0
v -49 -47 0
v -50 -47 0
v -50 -46 0
v -49 -46 0
v -50 -47 0
v -51 -47 0
v -51 -46 0
v -50 -46 0
v -51 -47 0
v -52 -47 0
v -52 -46 0
v -51 -46 0
v -60 -47 0
v -61 -47 0
v -61 -46 0
v -60 -46 0
v -61 -47 0
v -62 -47 0
v -62 -46 0
v -61 -46 0
v -62 -47 0
v -63 -47 0
v -63 -46 0
v -62 -46 0
v -63 -47 0
v -64 -47 0
v -64 -46 0
v -63 -46 0
v -64 -47 0
v -65 -47 0
v -65 -46 0
v -64 -46 0
v -65 -47 0
v -66 -47 0
v -66 -46 0
v -65 -46 0
v -66 -47 0
v -67 -47 0
v -67 -46 0
v -66 -46 0
v -67 -47 0
v -68 -47 0
v -68 -46 0
v -67 -46 0
v -68 -47 0
v -69 -47 0
v -69 -46 0
v -68 -46 0
v -69 -47 0
v -70 -47 0
v -70 -46 0
v -69 -46 0
v -70 -47 0
v -71 -47 0
v -71 -46 0
v -70 -46 0
v -71 -47 0
v -72 -47 0
v -72 -46 0
v -71 -46 0
v -72 -47 0
v -73 -47 0
v -73 -46 0
v -72 -46 0
v -73 -47 0
v -74 -47 0
v -74 -46 0
v -73 -46 0
v -74 -47 0
v -75 -47 0
v -75 -46 0
v -74 -46 0
v -75 -47 0
v -76 -47 0
v -76 -46 0
v -75 -46 0
v -76 -47 0
v -77 -47 0
v -77 -46 0
v -76 -46 0
v -77 -47 0
v -78 -47 0
v -78 -46 0
v -77 -46 0
v -78 -47 0
v -79 -47 0
v -79 -46 0
v -78 -46 0
v -79 -47 0
v -80 -47 0
v -80 -46 0
v -79 -46 0
v -80 -47 0
v -81 -47 0
v -81 -46 0
v -80 -46 0
v -32 -48 0
v -33 -48 0
v -33 -47 0
v -32 -47 0
v -33 -48 0
v -34 -48 0
v -34 -47 0
v -33 -47 0
v -34 -48 0
v -35 -48 0
v -35 -47 0
v -34 -47 0
v -35 -48 0
v -36 -48 0
v -36 -47 0
v -35 -47 0
v -36 -48 0
v -37 -48 0
v -37 -47 0
v -36 -47 0
v -40 -48 0
v -41 -48 0
v -41 -47 0
v -40 -47 0
v -41 -48 0
v -42 -48 0
v -42 -47 0
v -41 -47 0
v -42 -48 0
v -43 -48 0
v -43 -47 0
v -42 -47 0
v -43 -48 0
v -44 -48 0
v -44 -47 0
v -43 -47 0
v -44 -48 0
v -45 -48 0
v -45 -47 0
v -44 -47 0
v -45 -48 0
v -46 -48 0
v -46 -47 0
v -45 -47 0
v -46 -48 0
v -47 -48 0
v -47 -47 0
v -46 -47 0
v -47 -48 0
v -48 -48 0
v -48 -47 0
v -47 -47 0
v -48 -48 0
v -49 -48 0
v -49 -47 0
v -48 -47 0
v -49 -48 0
v -50 -48 0
v -50 -47 0
v -49 -47 0
v -50 -48 0
v -51 -48 0
v -51 -47 0
v -50 -47 0
v -51 -48 0
v -52 -48 0
v -52 -47 0
v -51 -47 0
v -60 -48 0
v -61 -48 0
v -61 -47 0
v -60 -47 0
v -61 -48 0
v -62 -48 0
v -62 -47 0
v -61 -47 0
v -62 -48 0
v -63 -48 0
v -63 -47 0
v -62 -47 0
v -63 -48 0
v -64 -48 0
v -64 -47 0
v -63 -47 0
v -64 -48 0
v -65 -48 0
v -65 -47 0
v -64 -47 0
v -65 -48 0
v -66 -48 0
v -66 -47 0
v -65 -47 0
v -66 -48 0
v -67 -48 0
v -67 -47 0
v -66 -47 0
v -67 -48 0
v -68 -48 0
v -68 -47 0
v -67 -47 0
v -68 -48 0
v -69 -48 0
v -69 -47 0
v -68 -47 0
v -69 -48 0
v -70 -48 0
v -70 -47 0
v -69 -47 0
v -70 -48 0
v -71 -48 0
v -71 -47 0
v -70 -47 0
v -71 -48 0
v -72 -48 0
v -72 -47 0
v -71 -47 0
v -72 -48 0
v -73 -48 0
v -73 -47 0
v -72 -47 0
v -73 -48 0
v -74 -48 0
v -74 -47 0
v -73 -47 0
v -74 -48 0
v -75 -48 0
v -75 -47 0
v -74 -47 0
v -75 -48 0
v -76 -48 0
v -76 -47 0
v -75 -47 0
v -76 -48 0
v -77 -48 0
v -77 -47 0
v -76 -47 0
v -77 -48 0
v -78 -48 0
v -78 -47 0
v -77 -47 0
v -78 -48 0
v -79 -48 0
v -79 -47 0
v -78 -47 0
v -79 -48 0
v -80 -48 0
v -80 -47 0
v -79 -47 0
v -80 -48 0
v -81 -48 0
v -81 -47 0
v -80 -47 0
v -32 -49 0
v -33 -49 0
v -33 -48 0
v -32 -48 0
v -33 -49 0
v -34 -49 0
v -34 -48 0
v -33 -48 0
v -34 -49 0
v -35 -49 0
v -35 -48 0
v -34 -48 0
v -35 -49 0
v -36 -49 0
v -36 -48 0
v -35 -48 0
v -36 -49 0
v -37 -49 0
v -37 -48 0
v -36 -48 0
v -37 -49 0
v -38 -49 0
v -38 -48 0
v -37 -48 0
v -38 -49 0
v -39 -49 0
v -39 -48 0
v -38 -48 0
v -39 -49 0
v -40 -49 0
v -40 -48 0
v -39 -48 0
v -40 -49 0
v -41 -49 0
v -41 -48 0
v -40 -48 0
v -41 -49 0
v -42 -49 0
v -42 -48 0
v -41 -48 0
v -42 -49 0
v -43 -49 0
v -43 -48 0
v -42 -48 0
v -43 -49 0
v -44 -49 0
v -44 -48 0
v -43 -48 0
v -44 -49 0
v -45 -49 0
v -45 -48 0
v -44 -48 0
v -45 -49 0
v -46 -49 0
v -46 -48 0
v -45 -48 0
v -46 -49 0
v -47 -49 0
v -47 -48 0
v -46 -48 0
v -47 -49 0
v -48 -49 0
v -48 -48 0
v -47 -48 0
v -48 -49 0
v -49 -49 0
v -49 -48 0
v -48 -48 0
v -49 -49 0
v -50 -49 0
v -50 -48 0
v -49 -48 0
v -50 -49 0
v -51 -49 0
v -51 -48 0
v -50 -48 0
v -51 -49 0
v -52 -49 0
v -52 -48 0
v -51 -48 0
v -52 -49 0
v -53 -49 0
v -53 -48 0
v -52 -48 0
v -53 -49 0
v -54 -49 0
v -54 -48 0
v -53 -48 0
v -54 -49 0
v -55 -49 0
v -55 -48 0
v -54 -48 0
v -55 -49 0
v -56 -49 0
v -56 -48 0
v -55 -48 0
v -56 -49 0
v -57 -49 0
v -57 -48 0
v -56 -48 0
v -57 -49 0
v -58 -49 0
v -58 -48 0
v -57 -48 0
v -58 -49 0
v -59 -49 0
v -59 -48 0
v -58 -48 0
v -59 -49 0
v -60 -49 0
v -60 -48 0
v -59 -48 0
v -60 -49 0
v -61 -49 0
v -61 -48 0
v -60 -48 0
v -61 -49 0
v -62 -49 0
v -62 -48 0
v -61 -48 0
v -62 -49 0
v -63 -49 0
v -63 -48 0
v -62 -48 0
v -63 -49 0
v -64 -49 0
v -64 -48 0
v -63 -48 0
v -64 -49 0
v -65 -49 0
v -65 -48 0
v -64 -48 0
v -65 -49 0
v -66 -49 0
v -66 -48 0
v -65 -48 0
v -66 -49 0
v -67 -49 0
v -67 -48 0
v -66 -48 0
v -67 -49 0
v -68 -49 0
v -68 -48 0
v -67 -48 0
v -68 -49 0
v -69 -49 0
v -69 -48 0
v -68 -48 0
v -69 -49 0
v -70 -49 0
v -70 -48 0
v -69 -48 0
v -70 -49 0
v -71 -49 0
v -71 -48 0
v -70 -48 0
v -71 -49 0
v -72 -49 0
v -72 -48 0
v -71 -48 0
v -72 -49 0
v -73 -49 0
v -73 -48 0
v -72 -48 0
v -73 -49 0
v -74 -49 0
v -74 -48 0
v -73 -48 0
v -74 -49 0
v -75 -49 0
v -75 -48 0
v -74 -48 0
v -75 -49 0
v -76 -49 0
v -76 -48 0
v -75 -48 0
v -76 -49 0
v -77 -49 0
v -77 -48 0
v -76 -48 0
v -77 -49 0
v -78 -49 0
v -78 -48 0
v -77 -48 0
v -78 -49 0
v -79 -49 0
v -79 -48 0
v -78 -48 0
v -79 -49 0
v -80 -49 0
v -80 -48 0
v -79 -48 0
v -80 -49 0
v -81 -49 0
v -81 -48 0
v -80 -48 0

# Texture cooridinates (Count = 82)
vt 0 0.5
vt 0.04166667 0.5
vt 0.04166667 0.5625
vt 0 0.5625
vt 0.8333333 0.9375
vt 0.875 0.9375
vt 0.875 1
vt 0.8333333 1
vt 0.9166667 0.9375
vt 0.9166667 1
vt 0.9583333 0.9375
vt 0.9583333 1
vt 1 0.9375
vt 1 1
vt 0.8333333 0.875
vt 0.875 0.875
vt 0.9166667 0.875
vt 0.9583333 0.875
vt 1 0.875
vt 0.75 0.75
vt 0.7916667 0.75
vt 0.7916667 0.8125
vt 0.75 0.8125
vt 0.8333333 0.8125
vt 0.875 0.8125
vt 0.9166667 0.8125
vt 0.9583333 0.8125
vt 1 0.8125
vt 0.75 0.4375
vt 0.7916667 0.4375
vt 0.7916667 0.5
vt 0.75 0.5
vt 0.6666667 0.5625
vt 0.7083333 0.5625
vt 0.7083333 0.625
vt 0.6666667 0.625
vt 0.8333333 0.75
vt 0.875 0.75
vt 0.9166667 0.75
vt 0.9583333 0.75
vt 1 0.75
vt 0.75 0.375
vt 0.7916667 0.375
vt 0.6666667 0.5
vt 0.7083333 0.5
vt 0.8333333 0.6875
vt 0.875 0.6875
vt 0.9166667 0.6875
vt 0.9583333 0.6875
vt 1 0.6875
vt 0.25 0.75
vt 0.2916667 0.75
vt 0.2916667 0.8125
vt 0.25 0.8125
vt 0.125 0.8125
vt 0.1666667 0.8125
vt 0.1666667 0.875
vt 0.125 0.875
vt 0.8333333 0.625
vt 0.875 0.625
vt 0.9166667 0.625
vt 0.9583333 0.625
vt 0.3333333 0.875
vt 0.375 0.875
vt 0.375 0.9375
vt 0.3333333 0.9375
vt 0.5833333 0.8125
vt 0.625 0.8125
vt 0.625 0.875
vt 0.5833333 0.875
vt 0.8333333 0.5625
vt 0.875 0.5625
vt 0.9166667 0.5625
vt 0.9583333 0.5625
vt 0.2083333 0.5
vt 0.25 0.5
vt 0.25 0.5625
vt 0.2083333 0.5625
vt 0.2916667 0.5
vt 0.3333333 0.5
vt 0.3333333 0.5625
vt 0.2916667 0.5625

# Normal
vn 0 0 -1

# Mesh description
g Level1Map_mesh_0004

# Faces
f 1/1/1 2/2/1 3/3/1 4/4/1
f 5/1/1 6/2/1 7/3/1 8/4/1
f 9/1/1 10/2/1 11/3/1 12/4/1
f 13/1/1 14/2/1 15/3/1 16/4/1
f 17/1/1 18/2/1 19/3/1 20/4/1
f 21/1/1 22/2/1 23/3/1 24/4/1
f 25/1/1 26/2/1 27/3/1 28/4/1
f 29/1/1 30/2/1 31/3/1 32/4/1
f 33/1/1 34/2/1 35/3/1 36/4/1
f 37/1/1 38/2/1 39/3/1 40/4/1
f 41/1/1 42/2/1 43/3/1 44/4/1
f 45/1/1 46/2/1 47/3/1 48/4/1
f 49/1/1 50/2/1 51/3/1 52/4/1
f 53/1/1 54/2/1 55/3/1 56/4/1
f 57/5/1 58/6/1 59/7/1 60/8/1
f 61/6/1 62/9/1 63/10/1 64/7/1
f 65/9/1 66/11/1 67/12/1 68/10/1
f 69/11/1 70/13/1 71/14/1 72/12/1
f 73/1/1 74/2/1 75/3/1 76/4/1
f 77/1/1 78/2/1 79/3/1 80/4/1
f 81/15/1 82/16/1 83/6/1 84/5/1
f 85/16/1 86/17/1 87/9/1 88/6/1
f 89/17/1 90/18/1 91/11/1 92/9/1
f 93/18/1 94/19/1 95/13/1 96/11/1
f 97/20/1 98/21/1 99/22/1 100/23/1
f 101/1/1 102/2/1 103/3/1 104/4/1
f 105/1/1 106/2/1 107/3/1 108/4/1
f 109/24/1 110/25/1 111/16/1 112/15/1
f 113/25/1 114/26/1 115/17/1 116/16/1
f 117/26/1 118/27/1 119/18/1 120/17/1
f 121/27/1 122/28/1 123/19/1 124/18/1
f 125/29/1 126/30/1 127/31/1 128/32/1
f 129/33/1 130/34/1 131/35/1 132/36/1
f 133/1/1 134/2/1 135/3/1 136/4/1
f 137/1/1 138/2/1 139/3/1 140/4/1
f 141/37/1 142/38/1 143/25/1 144/24/1
f 145/38/1 146/39/1 147/26/1 148/25/1
f 149/39/1 150/40/1 151/27/1 152/26/1
f 153/40/1 154/41/1 155/28/1 156/27/1
f 157/42/1 158/43/1 159/30/1 160/29/1
f 161/44/1 162/45/1 163/34/1 164/33/1
f 165/1/1 166/2/1 167/3/1 168/4/1
f 169/1/1 170/2/1 171/3/1 172/4/1
f 173/46/1 174/47/1 175/38/1 176/37/1
f 177/47/1 178/48/1 179/39/1 180/38/1
f 181/48/1 182/49/1 183/40/1 184/39/1
f 185/49/1 186/50/1 187/41/1 188/40/1
f 189/51/1 190/52/1 191/53/1 192/54/1
f 193/55/1 194/56/1 195/57/1 196/58/1
f 197/55/1 198/56/1 199/57/1 200/58/1
f 201/55/1 202/56/1 203/57/1 204/58/1
f 205/55/1 206/56/1 207/57/1 208/58/1
f 209/55/1 210/56/1 211/57/1 212/58/1
f 213/51/1 214/52/1 215/53/1 216/54/1
f 217/55/1 218/56/1 219/57/1 220/58/1
f 221/55/1 222/56/1 223/57/1 224/58/1
f 225/55/1 226/56/1 227/57/1 228/58/1
f 229/55/1 230/56/1 231/57/1 232/58/1
f 233/55/1 234/56/1 235/57/1 236/58/1
f 237/55/1 238/56/1 239/57/1 240/58/1
f 241/55/1 242/56/1 243/57/1 244/58/1
f 245/55/1 246/56/1 247/57/1 248/58/1
f 249/55/1 250/56/1 251/57/1 252/58/1
f 253/55/1 254/56/1 255/57/1 256/58/1
f 257/55/1 258/56/1 259/57/1 260/58/1
f 261/55/1 262/56/1 263/57/1 264/58/1
f 265/55/1 266/56/1 267/57/1 268/58/1
f 269/55/1 270/56/1 271/57/1 272/58/1
f 273/55/1 274/56/1 275/57/1 276/58/1
f 277/55/1 278/56/1 279/57/1 280/58/1
f 281/55/1 282/56/1 283/57/1 284/58/1
f 285/55/1 286/56/1 287/57/1 288/58/1
f 289/55/1 290/56/1 291/57/1 292/58/1
f 293/1/1 294/2/1 295/3/1 296/4/1
f 297/1/1 298/2/1 299/3/1 300/4/1
f 301/59/1 302/60/1 303/47/1 304/46/1
f 305/60/1 306/61/1 307/48/1 308/47/1
f 309/61/1 310/62/1 311/49/1 312/48/1
f 313/29/1 314/30/1 315/31/1 316/32/1
f 317/51/1 318/52/1 319/53/1 320/54/1
f 321/55/1 322/56/1 323/57/1 324/58/1
f 325/55/1 326/56/1 327/57/1 328/58/1
f 329/55/1 330/56/1 331/57/1 332/58/1
f 333/55/1 334/56/1 335/57/1 336/58/1
f 337/55/1 338/56/1 339/57/1 340/58/1
f 341/63/1 342/64/1 343/65/1 344/66/1
f 345/67/1 346/68/1 347/69/1 348/70/1
f 349/67/1 350/68/1 351/69/1 352/70/1
f 353/67/1 354/68/1 355/69/1 356/70/1
f 357/67/1 358/68/1 359/69/1 360/70/1
f 361/67/1 362/68/1 363/69/1 364/70/1
f 365/63/1 366/64/1 367/65/1 368/66/1
f 369/67/1 370/68/1 371/69/1 372/70/1
f 373/67/1 374/68/1 375/69/1 376/70/1
f 377/67/1 378/68/1 379/69/1 380/70/1
f 381/67/1 382/68/1 383/69/1 384/70/1
f 385/67/1 386/68/1 387/69/1 388/70/1
f 389/67/1 390/68/1 391/69/1 392/70/1
f 393/67/1 394/68/1 395/69/1 396/70/1
f 397/67/1 398/68/1 399/69/1 400/70/1
f 401/67/1 402/68/1 403/69/1 404/70/1
f 405/67/1 406/68/1 407/69/1 408/70/1
f 409/67/1 410/68/1 411/69/1 412/70/1
f 413/67/1 414/68/1 415/69/1 416/70/1
f 417/67/1 418/68/1 419/69/1 420/70/1
f 421/67/1 422/68/1 423/69/1 424/70/1
f 425/67/1 426/68/1 427/69/1 428/70/1
f 429/67/1 430/68/1 431/69/1 432/70/1
f 433/67/1 434/68/1 435/69/1 436/70/1
f 437/67/1 438/68/1 439/69/1 440/70/1
f 441/67/1 442/68/1 443/69/1 444/70/1
f 445/1/1 446/2/1 447/3/1 448/4/1
f 449/1/1 450/2/1 451/3/1 452/4/1
f 453/71/1 454/72/1 455/60/1 456/59/1
f 457/72/1 458/73/1 459/61/1 460/60/1
f 461/73/1 462/74/1 463/62/1 464/61/1
f 465/42/1 466/43/1 467/30/1 468/29/1
f 469/63/1 470/64/1 471/65/1 472/66/1
f 473/67/1 474/68/1 475/69/1 476/70/1
f 477/67/1 478/68/1 479/69/1 480/70/1
f 481/67/1 482/68/1 483/69/1 484/70/1
f 485/67/1 486/68/1 487/69/1 488/70/1
f 489/67/1 490/68/1 491/69/1 492/70/1
f 493/67/1 494/68/1 495/69/1 496/70/1
f 497/67/1 498/68/1 499/69/1 500/70/1
f 501/67/1 502/68/1 503/69/1 504/70/1
f 505/67/1 506/68/1 507/69/1 508/70/1
f 509/67/1 510/68/1 511/69/1 512/70/1
f 513/67/1 514/68/1 515/69/1 516/70/1
f 517/67/1 518/68/1 519/69/1 520/70/1
f 521/67/1 522/68/1 523/69/1 524/70/1
f 525/67/1 526/68/1 527/69/1 528/70/1
f 529/67/1 530/68/1 531/69/1 532/70/1
f 533/67/1 534/68/1 535/69/1 536/70/1
f 537/67/1 538/68/1 539/69/1 540/70/1
f 541/67/1 542/68/1 543/69/1 544/70/1
f 545/67/1 546/68/1 547/69/1 548/70/1
f 549/67/1 550/68/1 551/69/1 552/70/1
f 553/67/1 554/68/1 555/69/1 556/70/1
f 557/67/1 558/68/1 559/69/1 560/70/1
f 561/67/1 562/68/1 563/69/1 564/70/1
f 565/67/1 566/68/1 567/69/1 568/70/1
f 569/67/1 570/68/1 571/69/1 572/70/1
f 573/67/1 574/68/1 575/69/1 576/70/1
f 577/67/1 578/68/1 579/69/1 580/70/1
f 581/67/1 582/68/1 583/69/1 584/70/1
f 585/67/1 586/68/1 587/69/1 588/70/1
f 589/67/1 590/68/1 591/69/1 592/70/1
f 593/67/1 594/68/1 595/69/1 596/70/1
f 597/1/1 598/2/1 599/3/1 600/4/1
f 601/1/1 602/2/1 603/3/1 604/4/1
f 605/55/1 606/56/1 607/57/1 608/58/1
f 609/55/1 610/56/1 611/57/1 612/58/1
f 613/55/1 614/56/1 615/57/1 616/58/1
f 617/55/1 618/56/1 619/57/1 620/58/1
f 621/55/1 622/56/1 623/57/1 624/58/1
f 625/55/1 626/56/1 627/57/1 628/58/1
f 629/55/1 630/56/1 631/57/1 632/58/1
f 633/55/1 634/56/1 635/57/1 636/58/1
f 637/55/1 638/56/1 639/57/1 640/58/1
f 641/55/1 642/56/1 643/57/1 644/58/1
f 645/55/1 646/56/1 647/57/1 648/58/1
f 649/55/1 650/56/1 651/57/1 652/58/1
f 653/55/1 654/56/1 655/57/1 656/58/1
f 657/55/1 658/56/1 659/57/1 660/58/1
f 661/55/1 662/56/1 663/57/1 664/58/1
f 665/55/1 666/56/1 667/57/1 668/58/1
f 669/55/1 670/56/1 671/57/1 672/58/1
f 673/55/1 674/56/1 675/57/1 676/58/1
f 677/55/1 678/56/1 679/57/1 680/58/1
f 681/75/1 682/76/1 683/77/1 684/78/1
f 685/79/1 686/80/1 687/81/1 688/82/1
f 689/79/1 690/80/1 691/81/1 692/82/1
f 693/79/1 694/80/1 695/81/1 696/82/1
f 697/79/1 698/80/1 699/81/1 700/82/1
f 701/79/1 702/80/1 703/81/1 704/82/1
f 705/79/1 706/80/1 707/81/1 708/82/1
f 709/76/1 710/79/1 711/82/1 712/77/1
f 713/55/1 714/56/1 715/57/1 716/58/1
f 717/55/1 718/56/1 719/57/1 720/58/1
f 721/55/1 722/56/1 723/57/1 724/58/1
f 725/55/1 726/56/1 727/57/1 728/58/1
f 729/55/1 730/56/1 731/57/1 732/58/1
f 733/55/1 734/56/1 735/57/1 736/58/1
f 737/55/1 738/56/1 739/57/1 740/58/1
f 741/55/1 742/56/1 743/57/1 744/58/1
f 745/55/1 746/56/1 747/57/1 748/58/1
f 749/55/1 750/56/1 751/57/1 752/58/1
f 753/55/1 754/56/1 755/57/1 756/58/1
f 757/55/1 758/56/1 759/57/1 760/58/1
f 761/55/1 762/56/1 763/57/1 764/58/1
f 765/55/1 766/56/1 767/57/1 768/58/1
f 769/55/1 770/56/1 771/57/1 772/58/1
f 773/55/1 774/56/1 775/57/1 776/58/1
f 777/55/1 778/56/1 779/57/1 780/58/1
f 781/55/1 782/56/1 783/57/1 784/58/1
f 785/55/1 786/56/1 787/57/1 788/58/1
f 789/55/1 790/56/1 791/57/1 792/58/1
f 793/1/1 794/2/1 795/3/1 796/4/1

